<svg id="Layer_1" data-name="Layer 1" xmlns="http://www.w3.org/2000/svg" viewBox="0 0 500 500">
    <defs>
        <style>.cls-1{fill:#fff;}</style>
    </defs>
    <path class="cls-1"
        d="M427.09,347.41h0A18.53,18.53,0,0,1,411,356.69H64.58a18.56,18.56,0,0,1-16.07-27.83h0a18.57,18.57,0,0,1,16.07-9.28H411A18.55,18.55,0,0,1,427.09,347.41Z" />
    <path class="cls-1"
        d="M451.48,171.14h0a18.55,18.55,0,0,1-16.06,9.28H363.26a18.53,18.53,0,0,0-16.13,9.38L280.61,306.86a18.56,18.56,0,0,1-16.14,9.38h-.28A18.55,18.55,0,0,1,248,288.56l76.72-135.82a18.56,18.56,0,0,1,16.16-9.43h94.5A18.55,18.55,0,0,1,451.48,171.14Z" />
    <path class="cls-1"
        d="M308.82,170.88h0a18.54,18.54,0,0,1-16.21,9.54H83A18.56,18.56,0,0,1,67,152.59h0A18.55,18.55,0,0,1,83,143.31H292.61A18.55,18.55,0,0,1,308.82,170.88Z" />
    <path class="cls-1"
        d="M380.6,20A99.51,99.51,0,0,1,480,119.4V380.6A99.51,99.51,0,0,1,380.6,480H119.4A99.51,99.51,0,0,1,20,380.6V119.4A99.51,99.51,0,0,1,119.4,20H380.6m0-20H119.4A119.4,119.4,0,0,0,0,119.4V380.6A119.4,119.4,0,0,0,119.4,500H380.6A119.4,119.4,0,0,0,500,380.6V119.4A119.4,119.4,0,0,0,380.6,0Z" />
</svg>